LG_Sit_Stand_Walk01																		
version=1																		
nRows=82																		
nColumns=19																		
inDegrees=yes																		
endheader																		
time	ground_force2_vx	ground_force2_vy	ground_force2_vz	ground_force2_px	ground_force2_py	ground_force2_pz	ground_torque2_x	ground_torque2_y	ground_torque2_z	ground_force1_vx	ground_force1_vy	ground_force1_vz	ground_force1_px	ground_force1_py	ground_force1_pz	ground_torque1_x	ground_torque1_y	ground_torque1_z
2.2	-2.828661	93.206062	12.312136	0.198199	0	-0.353796	2.00E-06	0.715559	1.00E-06	0	0	0	-0.13	0	0.305	0	0	0
2.201	-3.060049	93.206062	12.468758	0.198199	0	-0.357243	2.00E-06	0.745519	1.00E-06	0	0	0	-0.13	0	0.305	0	0	0
2.202	-3.060049	94.067024	12.468758	0.198199	0	-0.353882	2.00E-06	0.784388	1.00E-06	0	0	0	-0.13	0	0.305	0	0	0
2.203	-3.375061	94.250992	12.468758	0.199138	0	-0.353882	2.00E-06	0.784388	1.00E-06	0	0	0	-0.13	0	0.305	0	0	0
2.204	-3.371452	94.589294	12.703869	0.200719	0	-0.353882	2.00E-06	0.725857	1.00E-06	0	0	0	-0.13	0	0.305	0	0	0
2.205	-3.371452	94.589294	12.703869	0.2004	0	-0.352926	0	0.701018	1.00E-06	0	0	0	-0.13	0	0.305	0	0	0
2.206	-3.371452	94.766319	12.703869	0.201099	0	-0.353442	0	0.701018	0.00E+00	0	0	0	-0.13	0	0.305	0	0	0
2.207	-3.138622	94.068924	12.704071	0.201235	0	-0.353442	0.00E+00	0.701018	1.00E-06	0	0	0	-0.13	0	0.305	0	0	0
2.208	-3.138622	95.283958	12.704071	0.201275	0	-0.354661	0	0.623909	1.00E-06	0	0	0	-0.13	0	0.305	0	0	0
2.209	-3.138622	95.283958	12.704071	0.201235	0	-0.354661	0	0.623909	1.00E-06	0	0	0	-0.13	0	0.305	0	0	0
2.21	-3.217194	95.283958	12.860651	0.201418	0	-0.354661	0.00E+00	0.620282	1.00E-06	0	0	0	-0.13	0	0.305	0	0	0
2.211	-3.217916	94.941048	12.390429	0.201418	0	-0.354515	2.00E-06	0.755003	1.00E-06	0	0	0	-0.13	0	0.305	0	0	0
2.212	-3.217916	94.941048	12.390429	0.201529	0	-0.359032	0.00E+00	0.707648	1.00E-06	0	0	0	-0.13	0	0.305	0	0	0
2.213	-3.217916	94.941048	12.390429	0.201529	0	-0.359032	2.00E-06	0.707648	1.00E-06	0	0	0	-0.13	0	0.305	0	0	0
2.214	-3.372175	95.1092	12.312218	0.200896	0	-0.359032	0.00E+00	0.664846	1.00E-06	0	0	0	-0.13	0	0.305	0	0	0
2.215	-3.372175	95.268906	11.998775	0.200896	0	-0.358827	2.00E-06	0.579312	1.00E-06	0	0	0	-0.13	0	0.305	0	0	0
2.216	-3.372175	95.268906	11.998775	0.200896	0	-0.358431	2.00E-06	0.491961	1.00E-06	0	0	0	-0.13	0	0.305	0	0	0
2.217	-3.218639	96.478165	12.233967	0.199943	0	-0.358431	2.00E-06	0.491961	0	0	0	0	-0.13	0	0.305	0	0	0
2.218	-3.218639	95.442467	12.312418	0.199943	0	-0.358431	3.00E-06	0.564114	0	0	0	0	-0.13	0	0.305	0	0	0
2.219	-3.218639	95.442467	12.468798	0.199456	0	-0.357872	3.00E-06	0.629029	0.00E+00	0	0	0	-0.13	0	0.305	0	0	0
2.22	-3.371452	95.442467	12.468878	0.199245	0	-0.358909	2.00E-06	0.629029	0	0	0	0	-0.13	0	0.305	0	0	0
2.221	-3.295767	94.057343	12.468878	0.199245	0	-0.358909	1.00E-06	0.66962	0	0	0	0	-0.13	0	0.305	0	0	0
2.222	-3.295767	94.057343	12.547289	0.200288	0	-0.358909	0.00E+00	0.66962	1.00E-06	0	0	0	-0.13	0	0.305	0	0	0
2.223	-3.217194	94.057343	12.625658	0.200463	0	-0.356945	1.00E-06	0.658359	1.00E-06	0	0	0	-0.13	0	0.305	0	0	0
2.224	-3.217194	93.736069	12.625658	0.200463	0	-0.354427	0.00E+00	0.658359	1.00E-06	0	0	0	-0.13	0	0.305	0	0	0
2.225	-3.217194	93.210327	12.625658	0.198841	0	-0.354427	2.00E-06	0.658359	1.00E-06	0	0	0	-0.13	0	0.305	0	0	0
2.226	-3.37001	93.210327	12.547289	0.198841	0	-0.354427	2.00E-06	0.611716	1.00E-06	0	0	0	-0.13	0	0.305	0	0	0
2.227	-3.37001	93.210327	12.547289	0.198841	0	-0.35621	2.00E-06	0.611716	1.00E-06	0	0	0	-0.13	0	0.305	0	0	0
2.228	-3.528597	94.763611	12.625578	0.20124	0	-0.35621	2.00E-06	0.593454	1.00E-06	0	0	0	-0.13	0	0.305	0	0	0
2.229	-3.528597	93.032082	12.625578	0.201214	0	-0.35789	2.00E-06	0.593454	1.00E-06	0	0	0	-0.13	0	0.305	0	0	0
2.23	-3.216473	92.353989	12.704151	0.20124	0	-0.35789	2.00E-06	0.568729	1.00E-06	0	0	0	-0.13	0	0.305	0	0	0
2.231	-3.060049	92.353989	12.704151	0.201214	0	-0.35789	2.00E-06	0.568729	1.00E-06	0	0	0	-0.13	0	0.305	0	0	0
2.232	-3.060049	92.857353	12.704151	0.200991	0	-0.359113	2.00E-06	0.602009	1.00E-06	0	0	0	-0.13	0	0.305	0	0	0
2.233	-3.060049	93.040604	12.9391	0.199938	0	-0.354831	2.00E-06	0.602009	1.00E-06	0	0	0	-0.13	0	0.305	0	0	0
2.234	-2.744316	93.040604	12.547491	0.19961	0	-0.357987	3.00E-06	0.602009	1.00E-06	0	0	0	-0.13	0	0.305	0	0	0
2.235	-2.744316	93.040604	12.78244	0.19961	0	-0.357987	3.00E-06	0.599718	0.00E+00	0	0	0	-0.13	0	0.305	0	0	0
2.236	-2.435078	93.730682	12.390629	0.199828	0	-0.357987	2.00E-06	0.621816	1.00E-06	0	0	0	-0.13	0	0.305	0	0	0
2.237	-2.435078	93.730682	12.390629	0.20022	0	-0.354427	2.00E-06	0.617512	2.00E-06	0	0	0	-0.13	0	0.305	0	0	0
2.238	-2.435078	93.730682	11.920483	0.199828	0	-0.354427	2.00E-06	0.621816	2.00E-06	0	0	0	-0.13	0	0.305	0	0	0
2.239	-2.90579	94.071625	11.920483	0.199637	0	-0.355847	2.00E-06	0.695921	2.00E-06	0	0	0	-0.13	0	0.305	0	0	0
2.24	-3.061493	94.071625	11.920483	0.199637	0	-0.357084	1.00E-06	0.702941	1.00E-06	0	0	0	-0.13	0	0.305	0	0	0
2.241	-3.061493	95.106522	12.625338	0.20142	0	-0.355847	1.00E-06	0.711778	0	0	0	0	-0.13	0	0.305	0	0	0
2.242	-3.061493	95.106522	12.625338	0.201828	0	-0.354786	2.00E-06	0.717905	0	0	0	0	-0.13	0	0.305	0	0	0
2.243	-3.138622	94.082436	12.625338	0.201828	0	-0.35378	2.00E-06	0.717905	0.00E+00	0	0	0	-0.13	0	0.305	0	0	0
2.244	-3.373617	93.73568	12.703989	0.201828	0	-0.35378	1.00E-06	0.640509	1.00E-06	0	0	0	-0.13	0	0.305	0	0	0
2.245	-3.76215	92.880135	12.390629	0.200679	0	-0.35416	1.00E-06	0.627797	1.00E-06	0	0	0	-0.13	0	0.305	0	0	0
2.246	-3.843611	92.880135	12.468998	0.200679	0	-0.355395	1.00E-06	0.627797	1.00E-06	0	0	0	-0.13	0	0.305	0	0	0
2.247	-3.76215	94.417244	12.468998	0.201589	0	-0.354871	1.00E-06	0.627797	1.00E-06	0	0	0	-0.13	0	0.305	0	0	0
2.248	-3.527155	95.794647	12.468998	0.202156	0	-0.354871	1.00E-06	0.577185	1.00E-06	0	0	0	-0.13	0	0.305	0	0	0
2.249	-3.450747	96.495132	12.704031	0.201589	0	-0.354871	1.00E-06	0.577185	1.00E-06	0	0	0	-0.13	0	0.305	0	0	0
2.25	-3.450747	96.495132	12.78244	0.201065	0	-0.358473	1.00E-06	0.584938	1.00E-06	0	0	0	-0.13	0	0.305	0	0	0
2.251	-3.450747	94.23246	12.78244	0.201065	0	-0.358473	0	0.621374	1.00E-06	0	0	0	-0.13	0	0.305	0	0	0
2.252	-3.372175	94.23246	12.78232	0.201065	0	-0.358406	0.00E+00	0.631092	1.00E-06	0	0	0	-0.13	0	0.305	0	0	0
2.253	-3.372175	93.384262	12.78232	0.201275	0	-0.357794	2.00E-06	0.631092	1.00E-06	0	0	0	-0.13	0	0.305	0	0	0
2.254	-3.216473	94.404877	12.703951	0.201203	0	-0.357794	2.00E-06	0.626219	0.00E+00	0	0	0	-0.13	0	0.305	0	0	0
2.255	-3.060772	93.889946	12.547289	0.201203	0	-0.358553	1.00E-06	0.626219	1.00E-06	0	0	0	-0.13	0	0.305	0	0	0
2.256	-2.902182	93.889946	12.547289	0.198978	0	-0.358553	0	0.577544	0.00E+00	0	0	0	-0.13	0	0.305	0	0	0
2.257	-2.827219	93.717529	12.547289	0.198978	0	-0.358413	0	0.644119	1.00E-06	0	0	0	-0.13	0	0.305	0	0	0
2.258	-2.902182	92.336647	12.7824	0.19845	0	-0.358413	0	0.626361	0.00E+00	0	0	0	-0.13	0	0.305	0	0	0
2.259	-2.827219	93.717529	12.625496	0.19898	0	-0.358413	1.00E-06	0.669103	2.00E-06	0	0	0	-0.13	0	0.305	0	0	0
2.26	-2.828661	94.416855	12.860731	0.19898	0	-0.355523	1.00E-06	0.669103	1.00E-06	0	0	0	-0.13	0	0.305	0	0	0
2.261	-2.828661	94.416855	12.625658	0.19898	0	-0.355523	1.00E-06	0.73696	1.00E-06	0	0	0	-0.13	0	0.305	0	0	0
2.262	-2.905069	92.848503	12.625658	0.200068	0	-0.355719	1.00E-06	0.73696	1.00E-06	0	0	0	-0.13	0	0.305	0	0	0
2.263	-2.980755	92.524498	12.625658	0.200126	0	-0.355719	1.00E-06	0.639436	0	0	0	0	-0.13	0	0.305	0	0	0
2.264	-3.062214	90.786407	13.174135	0.200126	0	-0.355719	1.00E-06	0.639436	0	0	0	0	-0.13	0	0.305	0	0	0
2.265	-2.980755	90.786407	13.174135	0.201625	0	-0.357101	1.00E-06	0.640608	0	0	0	0	-0.13	0	0.305	0	0	0
2.266	-2.90074	93.551285	12.9391	0.200026	0	-0.357101	2.00E-06	0.640608	0	0	0	0	-0.13	0	0.305	0	0	0
2.267	-2.90074	93.551285	12.7824	0.200026	0	-0.355909	1.00E-06	0.640608	1.00E-06	0	0	0	-0.13	0	0.305	0	0	0
2.268	-2.90074	93.565582	12.7824	0.200026	0	-0.354345	2.00E-06	0.532574	1.00E-06	0	0	0	-0.13	0	0.305	0	0	0
2.269	-3.059328	92.171158	12.7824	0.199725	0	-0.355909	2.00E-06	0.638737	1.00E-06	0	0	0	-0.13	0	0.305	0	0	0
2.27	-2.82361	92.171158	12.78244	0.201195	0	-0.35699	2.00E-06	0.526365	2.00E-06	0	0	0	-0.13	0	0.305	0	0	0
2.271	-2.903627	92.171158	12.547371	0.201195	0	-0.35699	2.00E-06	0.558514	2.00E-06	0	0	0	-0.13	0	0.305	0	0	0
2.272	-2.903627	92.691498	12.547371	0.202348	0	-0.35699	1.00E-06	0.558514	2.00E-06	0	0	0	-0.13	0	0.305	0	0	0
2.273	-3.134293	92.706177	12.547371	0.202348	0	-0.353019	1.00E-06	0.558514	1.00E-06	0	0	0	-0.13	0	0.305	0	0	0
2.274	-3.134293	94.427658	12.155638	0.202093	0	-0.359104	1.00E-06	0.604486	1.00E-06	0	0	0	-0.13	0	0.305	0	0	0
2.275	-3.134293	94.427658	12.625778	0.201083	0	-0.359104	0.00E+00	0.624052	1.00E-06	0	0	0	-0.13	0	0.305	0	0	0
2.276	-2.982922	94.071236	12.390629	0.201083	0	-0.359104	0	0.624052	2.00E-06	0	0	0	-0.13	0	0.305	0	0	0
2.277	-3.058607	94.071236	12.625658	0.200827	0	-0.358351	0	0.577799	1.00E-06	0	0	0	-0.13	0	0.305	0	0	0
2.278	-3.058607	94.758583	12.390629	0.200827	0	-0.356701	0.00E+00	0.577799	1.00E-06	0	0	0	-0.13	0	0.305	0	0	0
2.279	-3.605728	95.279709	12.233967	0.200827	0	-0.355696	1.00E-06	0.577799	1.00E-06	0	0	0	-0.13	0	0.305	0	0	0
2.28	-3.605728	95.795807	12.233967	0.200308	0	-0.355594	2.00E-06	0.570107	1.00E-06	0	0	0	-0.13	0	0.305	0	0	0
2.281	-3.295044	95.279709	12.468916	0.200486	0	-0.355696	2.00E-06	0.570107	1.00E-06	0	0	0	-0.13	0	0.305	0	0	0
